<mxfile host="app.diagrams.net" modified="2023-10-20T06:08:20.227Z" agent="Mozilla/5.0 (Windows NT 10.0; Win64; x64) AppleWebKit/537.36 (KHTML, like Gecko) Chrome/118.0.0.0 Safari/537.36" version="22.0.5" etag="oIalqaJ-2S4VdyJcf9Jo" type="github">
  <diagram name="第 1 页" id="0ZIzqDiL9UeCE-KhGRlb">
    <mxGraphModel>
      <root>
        <mxCell id="0" />
        <mxCell id="1" parent="0" />
      </root>
    </mxGraphModel>
  </diagram>
</mxfile>
